<svg width="32" height="32" viewBox="0 0 32 32" fill="none" xmlns="http://www.w3.org/2000/svg">
<rect width="32" height="32" rx="16" fill="white"/>
<g clip-path="url(#clip0_603_999)">
<path d="M15.9845 0.0527344C7.18328 0.0527344 0.0481262 7.1877 0.0481262 15.9889C0.0481262 24.7906 7.18328 31.925 15.9845 31.925C24.7867 31.925 31.9211 24.7906 31.9211 15.9889C31.9211 7.18827 24.7869 0.0527344 15.9845 0.0527344ZM23.2928 23.0373C23.0074 23.5055 22.3946 23.6539 21.9265 23.3665C18.1848 21.081 13.4744 20.5634 7.92717 21.8308C7.39261 21.9526 6.85977 21.6177 6.73798 21.0829C6.61561 20.5482 6.94921 20.0153 7.4851 19.8935C13.5557 18.5066 18.7629 19.1038 22.9636 21.671C23.4318 21.9583 23.5802 22.5692 23.2928 23.0373ZM25.2434 18.6981C24.8838 19.2827 24.1188 19.4673 23.5345 19.1076C19.2508 16.4746 12.721 15.7121 7.65428 17.2501C6.99717 17.4486 6.30314 17.0782 6.1037 16.4223C5.90579 15.7651 6.2763 15.0724 6.93227 14.8726C12.7199 13.1165 19.915 13.9672 24.8343 16.9901C25.4185 17.3498 25.6031 18.1146 25.2434 18.6981ZM25.4109 14.1796C20.2747 11.1288 11.8006 10.8483 6.89669 12.3367C6.10922 12.5755 5.27646 12.131 5.03782 11.3435C4.79919 10.5556 5.24335 9.72346 6.03139 9.48406C11.6607 7.77516 21.0187 8.10533 26.9322 11.6158C27.642 12.0362 27.8742 12.951 27.4536 13.6583C27.0349 14.3666 26.1169 14.6001 25.4109 14.1796Z" fill="black"/>
</g>
<defs>
<clipPath id="clip0_603_999">
<rect width="32" height="32" fill="white"/>
</clipPath>
</defs>
</svg>
